# xmcd
#
# Track frame offsets:
#	160
#	11280
#	27357
#	43435
#	56572
#	74750
#	89682
#	114957
#	136657
#	158520
#	175702
#	195087
#	209165
#	223450
#	238800
#	249527
#	261690
#	274732
#	287272
#	299165
#	320387
#
# Disc length: 4465 seconds
#
# Revision: 1
# Processed by: cddbd v1.5.1PL0 Copyright (c) Steve Scherf et al.
# Submitted via: audiograbber 1.82.02
#
DISCID=4b116f15
DTITLE=Steve Kusaba - Brothers of Another Realm
DYEAR=1900
DGENRE=Soul
TTITLE0=Charlie
TTITLE1=4oz. Blues
TTITLE2=Virtue
TTITLE3=Seriula
TTITLE4=Rat Dance
TTITLE5=Mama Laria
TTITLE6=I Wanna
TTITLE7=Calling Jack Kervorkian
TTITLE8=No
TTITLE9=Lose Control
TTITLE10=Calais
TTITLE11=I Gor
TTITLE12=Schlargemoirglichtoo
TTITLE13=Merida
TTITLE14=Apoii
TTITLE15=Strident
TTITLE16=Wyoming
TTITLE17=Desperate
TTITLE18=Olives
TTITLE19=Caught In The Rain
TTITLE20=Chloe
EXTD=
EXTT0=
EXTT1=
EXTT2=
EXTT3=
EXTT4=
EXTT5=
EXTT6=
EXTT7=
EXTT8=
EXTT9=
EXTT10=
EXTT11=
EXTT12=
EXTT13=
EXTT14=
EXTT15=
EXTT16=
EXTT17=
EXTT18=
EXTT19=
EXTT20=
PLAYORDER=
